<svg xmlns="http://www.w3.org/2000/svg" xmlns:xlink="http://www.w3.org/1999/xlink" width="160" zoomAndPan="magnify" viewBox="0 0 120 37.5" height="50" preserveAspectRatio="xMidYMid meet" version="1.0"><defs><clipPath id="a7e6c77d60"><path d="M 6 0.191406 L 31 0.191406 L 31 36 L 6 36 Z M 6 0.191406 " clip-rule="nonzero"/></clipPath><clipPath id="3ad0a3527f"><path d="M 32 9 L 65 9 L 65 36.460938 L 32 36.460938 Z M 32 9 " clip-rule="nonzero"/></clipPath></defs><g clip-path="url(#a7e6c77d60)"><path fill="#175952" d="M 10.566406 0.804688 C 9.351562 0.796875 8.035156 0.789062 6.992188 0.855469 C 7.078125 2.269531 7.046875 3.832031 7.015625 5.34375 C 7.003906 5.929688 6.996094 6.507812 6.988281 7.0625 L 6.960938 16.964844 L 6.980469 27.5 C 6.988281 28.050781 6.992188 28.621094 7 29.199219 C 7.027344 31.207031 7.054688 33.328125 6.957031 35.230469 L 11.921875 35.234375 C 11.917969 34.972656 11.914062 34.71875 11.910156 34.464844 C 11.886719 33.019531 11.867188 31.652344 12.117188 30.183594 C 13.003906 25.027344 19.707031 23.347656 23.246094 26.96875 C 25.183594 28.949219 25.144531 31.667969 25.109375 34.273438 C 25.101562 34.59375 25.097656 34.910156 25.097656 35.226562 L 30.15625 35.234375 C 30.160156 35 30.164062 34.757812 30.164062 34.511719 C 30.1875 32.703125 30.214844 30.589844 29.886719 28.953125 C 29.074219 25.878906 27.652344 24.039062 24.976562 22.375 C 29.46875 19.410156 30.144531 16.246094 30.140625 11.125 L 24.941406 11.171875 C 25.242188 18.902344 22.300781 19.835938 15.570312 20.773438 C 14.558594 20.914062 12.808594 22.054688 11.964844 22.679688 C 11.902344 15.390625 11.882812 8.101562 11.90625 0.808594 C 11.488281 0.8125 11.035156 0.808594 10.566406 0.804688 Z M 10.566406 0.804688 " fill-opacity="1" fill-rule="nonzero"/></g><g clip-path="url(#3ad0a3527f)"><path fill="#175952" d="M 48.183594 9.039062 C 47.863281 9.035156 47.4375 9.035156 47.167969 9.058594 C 43.621094 9.511719 40.707031 11.179688 38.929688 14.347656 C 38.191406 15.660156 37.523438 17.023438 36.808594 18.351562 L 34.132812 23.3125 C 34.027344 23.515625 33.917969 23.714844 33.808594 23.917969 C 32.75 25.871094 31.800781 27.632812 32.128906 30.019531 C 32.390625 31.832031 33.363281 33.46875 34.832031 34.566406 C 36.804688 36.046875 38.4375 36.035156 40.605469 36.015625 C 40.882812 36.015625 41.175781 36.011719 41.476562 36.011719 C 41.65625 36.011719 41.851562 36.015625 42.054688 36.019531 C 42.722656 36.03125 43.46875 36.042969 44.128906 35.960938 C 44.941406 35.863281 45.253906 35.679688 45.902344 34.984375 C 46.777344 34.042969 46.734375 32.308594 46.691406 30.660156 C 46.644531 28.835938 46.601562 27.117188 47.808594 26.6875 C 48.046875 26.605469 48.875 26.796875 49.09375 27.007812 C 49.289062 27.199219 49.382812 27.316406 49.511719 27.582031 C 49.710938 28.492188 49.5625 32.664062 49.335938 33.734375 C 49.167969 34.539062 48.835938 35.285156 48.441406 36.003906 C 50.328125 36.015625 52.21875 36.015625 54.105469 36.007812 C 54.359375 36.007812 54.636719 36.007812 54.925781 36.011719 C 56.265625 36.023438 57.875 36.039062 58.96875 35.753906 C 60.167969 35.4375 61.261719 34.8125 62.140625 33.9375 C 64.421875 31.699219 64.832031 28.359375 63.386719 25.578125 C 63.113281 25.046875 62.84375 24.519531 62.566406 23.992188 C 61.914062 22.761719 61.257812 21.535156 60.59375 20.3125 C 59.574219 18.414062 58.199219 15.613281 57.082031 13.855469 C 56.703125 13.25 56.261719 12.6875 55.757812 12.175781 C 53.796875 10.191406 51.128906 9.066406 48.339844 9.039062 C 48.289062 9.039062 48.238281 9.039062 48.183594 9.039062 Z M 48.007812 23.097656 C 42.914062 23.335938 42.84375 27.792969 43.046875 31.644531 C 42.613281 31.625 42.0625 31.648438 41.492188 31.671875 C 40.53125 31.710938 39.511719 31.753906 38.875 31.609375 C 35.222656 30.792969 36.984375 27.617188 38.015625 25.765625 C 38.09375 25.621094 38.171875 25.484375 38.238281 25.355469 L 40.398438 21.359375 C 41.050781 20.15625 41.785156 18.851562 42.386719 17.625 C 43.601562 15.152344 45.019531 14.011719 47.777344 13.617188 C 47.824219 13.617188 47.871094 13.613281 47.917969 13.613281 C 50.078125 13.578125 52.09375 14.519531 53.257812 16.371094 C 53.75 17.152344 54.195312 18.070312 54.632812 18.886719 L 56.6875 22.726562 C 57.550781 24.351562 58.464844 25.972656 59.277344 27.597656 C 59.800781 28.605469 59.851562 29.980469 58.976562 30.824219 C 57.976562 31.78125 55.910156 31.703125 54.28125 31.640625 C 53.917969 31.628906 53.578125 31.613281 53.277344 31.613281 C 53.277344 31.257812 53.285156 30.894531 53.292969 30.527344 C 53.34375 28.523438 53.398438 26.441406 52.0625 24.882812 C 51.074219 23.726562 49.929688 23.277344 48.460938 23.089844 C 48.308594 23.085938 48.160156 23.089844 48.007812 23.097656 Z M 48.007812 23.097656 " fill-opacity="1" fill-rule="nonzero"/></g><path fill="#175952" d="M 100.5 10.960938 L 100.410156 10.960938 C 84.15625 11.933594 84.574219 35.382812 101.316406 35.210938 C 102.53125 35.214844 103.777344 35.207031 105.03125 35.199219 C 107.753906 35.1875 110.53125 35.171875 113.144531 35.238281 C 113.140625 34.445312 113.15625 33.335938 113.179688 32.058594 C 113.25 27.6875 113.351562 21.359375 112.722656 19.097656 C 112.21875 17.269531 111.175781 15.613281 109.824219 14.292969 C 107.277344 11.792969 103.988281 10.902344 100.5 10.960938 Z M 103.648438 31.097656 C 102.929688 31.105469 102.21875 31.109375 101.53125 31.109375 C 91.4375 31.339844 90.179688 17.132812 100.132812 15.214844 C 102.238281 14.9375 104.648438 15.59375 106.1875 17.097656 C 108.402344 19.261719 108.375 21.976562 108.347656 24.796875 C 108.34375 25.109375 108.339844 25.429688 108.339844 25.746094 C 108.332031 27.535156 108.339844 29.320312 108.367188 31.109375 C 106.867188 31.070312 105.238281 31.082031 103.648438 31.097656 Z M 103.648438 31.097656 " fill-opacity="1" fill-rule="nonzero"/><path fill="#175952" d="M 73.820312 11.1875 C 70.675781 11.179688 67.535156 11.175781 64.394531 11.207031 L 64.410156 15.621094 C 66.234375 15.628906 68.097656 15.617188 69.964844 15.605469 C 73.007812 15.589844 76.066406 15.570312 79.007812 15.632812 L 64.433594 32.667969 L 64.441406 35.21875 L 85.582031 35.230469 L 86.839844 35.246094 L 86.820312 30.894531 C 85.464844 30.890625 84.074219 30.882812 82.675781 30.871094 C 79.203125 30.847656 75.648438 30.824219 72.3125 30.910156 C 76.566406 25.683594 81.074219 20.640625 85.382812 15.460938 L 85.414062 11.136719 C 81.554688 11.203125 77.6875 11.195312 73.820312 11.1875 Z M 73.820312 11.1875 " fill-opacity="1" fill-rule="nonzero"/></svg>